HIERARCHY
ROOT Hips
{
	OFFSET -0.001795 -0.223333 0.028219
	CHANNELS 6 Xposition Yposition Zposition Zrotation Yrotation Xrotation 
	JOINT LeftUpLeg
	{
		OFFSET 0.069520 -0.091406 -0.006815
		CHANNELS 3 Zrotation Yrotation Xrotation
		JOINT LeftLeg
		{
			OFFSET 0.034277 -0.375199 -0.004496
			CHANNELS 3 Zrotation Yrotation Xrotation
			JOINT LeftFoot
			{
				OFFSET -0.013596 -0.397961 -0.043693
				CHANNELS 3 Zrotation Yrotation Xrotation
				JOINT LeftToe
				{
					OFFSET 0.026358 -0.055791 0.119288
					CHANNELS 3 Zrotation Yrotation Xrotation
					End Site
					{
						OFFSET 0.000000 0.000000 0.000000
					}
				}
			}
		}
	}
	JOINT RightUpLeg
	{
		OFFSET -0.067670 -0.090522 -0.004320
		CHANNELS 3 Zrotation Yrotation Xrotation
		JOINT RightLeg
		{
			OFFSET -0.038290 -0.382569 -0.008850
			CHANNELS 3 Zrotation Yrotation Xrotation
			JOINT RightFoot
			{
				OFFSET 0.015774 -0.398415 -0.042312
				CHANNELS 3 Zrotation Yrotation Xrotation
				JOINT RightToe
				{
					OFFSET -0.025372 -0.048144 0.123348
					CHANNELS 3 Zrotation Yrotation Xrotation
					End Site
					{
						OFFSET 0.000000 0.000000 0.000000
					}
				}
			}
		}
	}
	JOINT Spine
	{
		OFFSET -0.002533 0.108963 -0.026696
		CHANNELS 3 Zrotation Yrotation Xrotation
		JOINT Spine1
		{
			OFFSET 0.005487 0.135180 0.001092
			CHANNELS 3 Zrotation Yrotation Xrotation
			JOINT Spine2
			{
				OFFSET 0.001457 0.052922 0.025425
				CHANNELS 3 Zrotation Yrotation Xrotation
				JOINT Neck
				{
					OFFSET -0.002778 0.213870 -0.042857
					CHANNELS 3 Zrotation Yrotation Xrotation
					JOINT Head
					{
						OFFSET 0.005152 0.064970 0.051349
						CHANNELS 3 Zrotation Yrotation Xrotation
						End Site
						{
							OFFSET 0.000000 0.000000 0.000000
						}
					}
				}
				JOINT LeftShoulder
				{
					OFFSET 0.078845 0.121749 -0.034090
					CHANNELS 3 Zrotation Yrotation Xrotation
					JOINT LeftArm
					{
						OFFSET 0.090977 0.030469 -0.008868
						CHANNELS 3 Zrotation Yrotation Xrotation
						JOINT LeftForeArm
						{
							OFFSET 0.259612 -0.012772 -0.027456
							CHANNELS 3 Zrotation Yrotation Xrotation
							JOINT LeftHand
							{
								OFFSET 0.249234 0.008986 -0.001171
								CHANNELS 3 Zrotation Yrotation Xrotation
								End Site
								{
									OFFSET 0.000000 0.000000 0.000000
								}
							}
						}
					}
				}
				JOINT RightShoulder
				{
					OFFSET -0.081759 0.118833 -0.038615
					CHANNELS 3 Zrotation Yrotation Xrotation
					JOINT RightArm
					{
						OFFSET -0.096012 0.032551 -0.009143
						CHANNELS 3 Zrotation Yrotation Xrotation
						JOINT RightForeArm
						{
							OFFSET -0.253742 -0.013329 -0.021401
							CHANNELS 3 Zrotation Yrotation Xrotation
							JOINT RightHand
							{
								OFFSET -0.255298 0.007772 -0.005559
								CHANNELS 3 Zrotation Yrotation Xrotation
								End Site
								{
									OFFSET 0.000000 0.000000 0.000000
								}
							}
						}
					}
				}
			}
		}
	}
}
MOTION
Frames: 16
Frame Time: 0.050000
0.000000 0.874385 0.000000 -0.886599 -5.135450 4.340074 -7.963698 -5.003162 -34.818942 -0.288670 -0.437085 45.870498 1.690503 2.691514 -2.434672 0.000000 0.000000 0.000000 -0.103789 3.114114 -27.610354 30.874027 -16.550660 58.015498 -21.848608 -43.355262 10.438428 0.000000 0.000000 0.000000 -7.017664 1.710705 37.848716 -5.310474 2.675261 3.397502 5.011141 14.793619 -4.077053 8.455679 -5.000292 -5.925405 0.000000 0.000000 0.000000 -25.667210 -27.794515 9.477922 -14.635408 -29.621783 2.083616 171.780520 -53.753710 -161.171777 0.000000 0.000000 0.000000 28.553590 53.051658 40.426040 32.297903 51.979480 10.109407 -10.462737 3.308939 -0.079582 0.000000 0.000000 0.000000 
-0.060570 0.878305 0.061001 -2.189250 3.977446 2.334015 -7.289784 -4.641862 -28.388643 4.285525 -5.035746 45.512768 1.803278 1.824991 -4.384193 0.000000 0.000000 0.000000 -5.829570 1.295491 -31.364432 33.194032 -20.852869 52.672913 -19.648549 -39.017961 11.306232 0.000000 0.000000 0.000000 -5.948239 -0.080950 37.595483 -0.431166 0.212771 -0.363581 5.990897 17.147757 1.706898 4.615910 -2.441760 -4.395398 0.000000 0.000000 0.000000 -24.105974 -21.155138 3.202484 -24.228719 -35.088805 4.958087 -171.558531 -51.561919 161.009442 0.000000 0.000000 0.000000 34.139246 56.323262 48.910673 32.164611 57.738961 11.115143 -12.711008 -7.517108 0.898651 0.000000 0.000000 0.000000 
-0.127522 0.888576 0.129597 -3.019840 8.360607 1.172021 0.577293 -2.447145 -23.583178 0.476591 -3.963251 45.489415 1.035272 0.425127 -3.310369 0.000000 0.000000 0.000000 -7.183746 0.431108 -30.779702 24.130397 -15.635564 49.955523 -14.947502 -33.748079 2.533441 0.000000 0.000000 0.000000 -4.244228 -1.050230 33.435705 -1.212687 0.810127 -6.478927 8.674576 22.778808 10.840482 5.820283 0.116043 -14.153345 0.000000 0.000000 0.000000 -28.174375 -26.685173 2.189224 -30.068585 -34.195176 7.043887 -158.930723 -51.101884 129.824909 0.000000 0.000000 0.000000 26.428505 54.042186 43.680497 45.284915 61.133790 19.774638 -13.248475 -5.698152 0.750910 0.000000 0.000000 0.000000 
-0.196254 0.889935 0.203927 -6.256170 20.522032 -2.094837 6.020808 -1.731988 -20.212308 0.266081 -5.809933 41.821866 0.551971 -7.170269 -9.622251 0.000000 0.000000 0.000000 -7.930735 -0.892112 -25.456856 18.778758 -13.273013 39.454269 -16.959681 -38.119685 1.069691 0.000000 0.000000 0.000000 -1.508240 -2.699978 29.808264 -0.577903 0.668061 -4.712000 9.369205 23.476328 7.840619 7.549830 -1.890754 -9.486261 0.000000 0.000000 0.000000 -27.621208 -34.513638 2.503641 -43.868200 -25.966853 9.866717 -143.191653 -42.608529 74.088921 0.000000 0.000000 0.000000 42.804863 52.839820 59.048117 30.337846 60.942015 8.412413 -11.294984 -3.922219 0.386698 0.000000 0.000000 0.000000 
-0.265758 0.876518 0.278997 -11.023535 31.960054 -6.960195 12.722144 -1.670739 -18.224806 -6.702464 -4.080219 38.814405 5.145949 -5.950121 -17.832354 0.000000 0.000000 0.000000 -6.871182 -1.618351 -23.261810 11.245389 -10.899343 36.170867 -21.460994 -42.391075 7.240311 0.000000 0.000000 0.000000 -1.032838 -3.213108 26.804161 -1.700248 1.751405 -9.954263 15.048379 23.577924 11.959629 9.023364 -4.520813 -4.055031 0.000000 0.000000 0.000000 -35.687830 -47.551655 2.367817 -52.011254 -12.641443 11.043895 -130.758725 -38.762817 28.536471 0.000000 0.000000 0.000000 47.433053 48.521674 62.984539 17.173013 64.223831 -0.580833 -12.410315 -4.413319 0.383918 0.000000 0.000000 0.000000 
-0.334487 0.851253 0.351923 -17.953350 46.234800 -13.101773 19.288746 -3.377221 -23.197699 -10.997785 -5.771015 42.824706 10.388806 6.574191 -18.309789 0.000000 0.000000 0.000000 -8.300550 -3.049613 -19.251960 3.975466 -8.524311 32.238854 -28.605501 -41.290526 24.883406 0.000000 0.000000 0.000000 -4.136290 -3.604382 26.647240 3.820043 0.590823 -14.285002 13.880898 25.229929 13.120467 15.562710 -9.504492 -5.143360 0.000000 0.000000 0.000000 -38.302392 -56.410993 -3.205740 -59.325472 2.207265 9.185641 -126.434869 -31.363124 -15.298440 0.000000 0.000000 0.000000 45.260088 45.364741 63.271855 -2.490226 65.219079 -12.883487 -18.036174 -2.341289 -0.187547 0.000000 0.000000 0.000000 
-0.405345 0.823080 0.422991 -31.186733 61.540521 -24.229617 26.701793 -7.361699 -33.291657 -14.733649 -8.044220 47.222433 15.445458 19.062361 -18.919094 0.000000 0.000000 0.000000 -10.491030 -5.274389 -15.942173 -2.249044 -8.450729 32.031037 -27.395710 -29.137424 40.487205 0.000000 0.000000 0.000000 -5.532005 -5.328170 28.744137 4.613834 0.974268 -16.650797 8.872961 30.685496 10.913104 25.468211 -10.290163 -16.108195 0.000000 0.000000 0.000000 -27.607967 -66.490927 -7.073930 -71.479420 5.451076 2.827711 -123.174029 -22.205252 -77.115229 0.000000 0.000000 0.000000 33.772585 34.449697 52.998603 -24.775417 69.493934 -26.754509 -24.293660 -4.055785 -0.679677 0.000000 0.000000 0.000000 
-0.477822 0.800780 0.495388 -54.693704 73.694360 -44.375979 36.964668 -12.709773 -45.288802 -26.190154 -5.693655 48.160699 18.367764 32.838057 -15.053215 0.000000 0.000000 0.000000 -15.978581 -9.660382 -12.490130 -3.859518 -9.838057 30.872618 -21.013849 -19.297410 47.279174 0.000000 0.000000 0.000000 -6.249620 -7.477470 31.113314 -0.175220 2.264549 -22.561104 11.364242 29.836225 14.787889 26.800316 -7.515189 -20.108556 0.000000 0.000000 0.000000 -22.264311 -54.669715 -17.752951 -68.927281 11.980723 -0.398320 -134.849232 -2.641688 -119.409615 0.000000 0.000000 0.000000 18.844447 29.161101 39.162857 -19.848945 75.407634 -18.059192 -34.619380 -6.519562 -1.142909 0.000000 0.000000 0.000000 
-0.549444 0.781450 0.572943 -83.745919 79.376610 -72.126352 47.936300 -15.971244 -54.259664 -34.785900 -2.618379 41.204728 21.801190 42.926060 -4.085737 0.000000 0.000000 0.000000 -20.320467 -12.485617 -6.785162 -4.823594 -8.154919 25.974960 -17.008084 -14.319937 50.541320 0.000000 0.000000 0.000000 -8.599674 -8.650928 32.752211 -2.057707 2.366121 -22.034963 11.466576 29.954374 17.743587 27.430716 -3.998715 -25.991879 0.000000 0.000000 0.000000 -18.310116 -44.169798 -18.974948 -55.078056 10.815092 1.270934 -169.700477 -16.199755 77.189228 0.000000 0.000000 0.000000 -0.256674 26.824991 22.665895 26.098711 83.566723 32.853360 -40.193253 -15.700267 0.696659 0.000000 0.000000 0.000000 
-0.618724 0.766909 0.655940 -113.926583 80.439939 -102.408541 56.095642 -17.458921 -59.044979 -34.092925 -1.991634 35.916849 28.224829 47.164600 12.887270 0.000000 0.000000 0.000000 -24.414241 -15.372183 -2.694360 -2.606371 -9.400511 24.769040 -11.308761 -9.104342 46.781041 0.000000 0.000000 0.000000 -10.710990 -10.307726 35.672621 -0.839028 2.293031 -21.998276 9.524377 29.822382 16.846681 30.788447 -6.638453 -27.713841 0.000000 0.000000 0.000000 -21.350536 -42.324956 -20.142922 -34.470607 15.443517 2.346419 177.287921 -50.599260 164.649031 0.000000 0.000000 0.000000 -5.284970 22.902725 16.532015 97.421229 75.233239 96.267176 -58.638517 -11.825001 -0.532788 0.000000 0.000000 0.000000 
-0.684158 0.751979 0.736349 -124.164611 82.031679 -113.241598 57.716724 -17.774411 -60.152234 -28.382487 -2.275237 34.159022 25.530219 41.901718 20.240282 0.000000 0.000000 0.000000 -31.316255 -20.408849 -0.474315 3.188395 -14.099421 27.350129 -4.813809 -4.322965 33.377671 0.000000 0.000000 0.000000 -10.150441 -10.332945 35.611318 -0.985997 2.444774 -20.720574 7.086736 23.777476 18.334602 30.331802 -6.257437 -29.070614 0.000000 0.000000 0.000000 -26.588520 -36.496525 -22.204760 -16.555675 12.478926 2.182638 -172.159284 -84.299115 169.930429 0.000000 0.000000 0.000000 -8.347311 20.833897 11.374986 111.117243 59.334597 95.646662 -73.331322 -3.683552 -3.793760 0.000000 0.000000 0.000000 
-0.742893 0.741458 0.803107 -57.810318 83.231202 -47.719786 58.303547 -16.034882 -51.096885 -21.853508 -1.463725 27.445234 24.403179 37.370499 29.663456 0.000000 0.000000 0.000000 -32.581347 -26.857998 -13.816161 -1.853145 -18.097626 46.364566 0.899429 0.130660 17.037094 0.000000 0.000000 0.000000 -8.662359 -9.599142 35.813948 -0.453093 2.422215 -16.884852 0.194128 22.977835 14.982376 32.173476 -12.089451 -25.182995 0.000000 0.000000 0.000000 -31.115723 -33.792937 -18.773204 -8.524252 14.408671 1.161502 -7.466181 -72.644306 8.807140 0.000000 0.000000 0.000000 5.121625 15.544385 17.290120 97.446717 46.875685 54.807666 -75.667415 31.679467 -15.529212 0.000000 0.000000 0.000000 
-0.790381 0.739012 0.850890 -17.085858 70.413586 -8.029917 56.921494 -13.809640 -36.876604 -16.839733 -0.549153 24.181590 21.873985 32.783283 38.395436 0.000000 0.000000 0.000000 -27.096059 -29.075696 -31.840316 -7.875560 -12.143663 60.391870 12.770439 15.783123 13.741488 0.000000 0.000000 0.000000 -7.902496 -8.048472 36.194445 1.175840 1.241535 -10.031175 -8.138321 20.688885 7.365242 27.841648 -11.362983 -21.510800 0.000000 0.000000 0.000000 -32.626211 -29.868616 -13.316584 -12.420271 16.049391 0.502665 21.157667 -51.244459 -10.131588 0.000000 0.000000 0.000000 21.721005 8.688409 22.936880 76.424661 36.709905 17.937627 -56.489800 55.241163 -13.620353 0.000000 0.000000 0.000000 
-0.825442 0.740739 0.883795 -8.357613 54.431160 2.350706 53.818517 -11.946032 -21.790630 -13.920184 0.307353 20.062603 21.718406 31.194864 41.580370 0.000000 0.000000 0.000000 -18.553283 -25.285710 -49.295988 -7.148302 -6.678588 68.186715 10.147313 17.286456 5.467173 0.000000 0.000000 0.000000 -5.662015 -6.392988 35.725657 -1.891265 2.003428 -11.288263 -9.603965 7.313548 9.142690 21.725091 -10.028844 -17.113063 0.000000 0.000000 0.000000 -30.308474 -20.506857 -6.365160 -22.839232 10.963824 -1.421688 24.223420 -31.464528 -7.729369 0.000000 0.000000 0.000000 34.624004 8.295365 22.479021 49.576948 27.704511 -0.646169 -33.636111 52.933889 -7.030534 0.000000 0.000000 0.000000 
-0.848668 0.744348 0.905588 -5.249267 38.791031 7.777130 47.052476 -9.732727 -8.647542 -9.805362 0.265820 21.307471 18.209764 28.264413 40.244021 0.000000 0.000000 0.000000 -10.984949 -17.782004 -62.768055 -3.426013 -3.742768 71.046822 2.957959 5.791188 1.704973 0.000000 0.000000 0.000000 -4.771146 -4.656616 35.374853 -1.747011 1.302719 -6.732511 -10.247775 -1.826585 3.788440 13.185651 -6.182859 -13.123447 0.000000 0.000000 0.000000 -28.678710 -12.787811 -2.331221 -27.967417 5.339277 -2.442886 20.295101 -23.879996 -4.278795 0.000000 0.000000 0.000000 36.002649 13.320165 16.925734 37.855781 15.961690 -2.187837 -25.774601 41.404252 -5.953898 0.000000 0.000000 0.000000 
-0.861697 0.744415 0.919900 -4.260780 28.588040 11.168575 39.303084 -7.598213 -0.553482 -4.682028 -0.756372 24.267445 12.140122 23.615259 31.138270 0.000000 0.000000 0.000000 -8.052053 -12.450741 -70.162671 -0.132838 -3.114285 74.450089 -1.227811 -3.191695 1.082716 0.000000 0.000000 0.000000 -2.524858 -4.342415 36.145550 -3.926629 1.781512 -3.463372 -7.106548 -9.854913 2.260959 8.946665 -3.614057 -16.467601 0.000000 0.000000 0.000000 -27.840082 -12.262444 3.427232 -33.766364 -4.180731 -2.194967 18.878425 -14.233178 -1.877384 0.000000 0.000000 0.000000 32.149644 13.115962 8.203143 28.770856 11.010738 -0.938723 -22.260970 33.667266 -4.797179 0.000000 0.000000 0.000000 
